<svg xmlns="http://www.w3.org/2000/svg" width="12.368" height="12.368" viewBox="0 0 12.368 12.368">
    <defs>
        <style>
            .cls-1{fill:#fff}
        </style>
    </defs>
    <path id="Facebook" d="M362.4 153.62a.683.683 0 0 1-.683.683h-3.152v-4.79h1.608l.241-1.867h-1.848v-1.192c0-.54.15-.909.925-.909h.988v-1.67a13.277 13.277 0 0 0-1.44-.073 2.249 2.249 0 0 0-2.4 2.467v1.377h-1.612v1.867h1.612v4.79h-5.924a.683.683 0 0 1-.683-.683v-11a.683.683 0 0 1 .683-.683h11a.683.683 0 0 1 .683.683z" class="cls-1" transform="translate(-350.03 -141.935)"/>
</svg>
