<svg xmlns="http://www.w3.org/2000/svg" id="Group_21" width="31.237" height="35.757" data-name="Group 21" viewBox="0 0 31.237 35.757">
    <defs>
        <style>
            .cls-1{fill:#7aa725}.cls-2{fill:#fff}
        </style>
    </defs>
    <path id="Path_37" d="M1033.755-386.657a1.009 1.009 0 0 1-.5-.135l-14.61-8.434a1.008 1.008 0 0 1-.5-.874v-16.872a1.01 1.01 0 0 1 .5-.874l14.609-8.433a1.01 1.01 0 0 1 1.01 0l14.609 8.433a1.009 1.009 0 0 1 .5.874v16.87a1.008 1.008 0 0 1-.5.874l-14.609 8.436a1.009 1.009 0 0 1-.5.135" class="cls-1" data-name="Path 37" transform="translate(-1018.136 422.414)"/>
    <path id="Path_38" d="M1040.866-395.4h-5.4a.64.64 0 0 1-.64-.64.64.64 0 0 1 .64-.64h5.4a.639.639 0 0 1 .64.64.64.64 0 0 1-.64.64" class="cls-2" data-name="Path 38" transform="translate(-1025.762 410.655)"/>
    <path id="Path_39" d="M1042.224-391.765h-3.785a.64.64 0 0 1-.64-.64.64.64 0 0 1 .64-.64h3.785a.639.639 0 0 1 .64.64.639.639 0 0 1-.64.64" class="cls-2" data-name="Path 39" transform="translate(-1027.12 408.995)"/>
    <path id="Path_40" d="M1031.652-392.083h8.21v-8.317h-8.21zm9.063 1.706h-9.915a.853.853 0 0 1-.853-.853v-10.022a.853.853 0 0 1 .853-.853h9.916a.853.853 0 0 1 .853.853v10.022a.853.853 0 0 1-.853.853" class="cls-2" data-name="Path 40" transform="translate(-1023.532 413.135)"/>
    <path id="Path_41" d="M1056.572-389.075h-8.1a.853.853 0 0 1-.854-.853.854.854 0 0 1 .854-.853h7.25v-3.519l-2.84-3.252h-3.771a.853.853 0 0 1-.853-.853.853.853 0 0 1 .853-.853h4.159a.854.854 0 0 1 .643.292l3.305 3.785a.856.856 0 0 1 .211.561v4.691a.853.853 0 0 1-.853.853" class="cls-2" data-name="Path 41" transform="translate(-1031.605 411.834)"/>
    <path id="Path_42" d="M1039.9-383.245a2.086 2.086 0 0 1-2.086 2.086 2.086 2.086 0 0 1-2.086-2.086 2.086 2.086 0 0 1 2.086-2.086 2.086 2.086 0 0 1 2.086 2.086" class="cls-2" data-name="Path 42" transform="translate(-1026.172 405.471)"/>
    <path id="Path_43" d="M1056.948-383.245a2.086 2.086 0 0 1-2.086 2.086 2.086 2.086 0 0 1-2.086-2.086 2.086 2.086 0 0 1 2.086-2.086 2.086 2.086 0 0 1 2.086 2.086" class="cls-2" data-name="Path 43" transform="translate(-1033.963 405.471)"/>
    <path id="Path_44" d="M1054.4-394.914h-2.07v2.279h4z" class="cls-2" data-name="Path 44" transform="translate(-1033.758 409.849)"/>
</svg>
