<svg xmlns="http://www.w3.org/2000/svg" id="Group_22" width="31.237" height="35.757" data-name="Group 22" viewBox="0 0 31.237 35.757">
    <defs>
        <style>
            .cls-1{fill:#008838}.cls-2{fill:#fff}
        </style>
    </defs>
    <path id="Path_45" d="M1033.754-207.667a1.011 1.011 0 0 1-.505-.135l-14.609-8.434a1.008 1.008 0 0 1-.5-.874v-16.871a1.008 1.008 0 0 1 .5-.874l14.609-8.434a1.013 1.013 0 0 1 1.01 0l14.609 8.434a1.009 1.009 0 0 1 .5.874v16.87a1.01 1.01 0 0 1-.5.874l-14.609 8.435a1.008 1.008 0 0 1-.5.135" class="cls-1" data-name="Path 45" transform="translate(-1018.136 243.424)"/>
    <path id="Path_46" d="M1047.238-220.128l-.024-.972s.749-.014 1.176-.02c.009-.174.009-.442.009-.723v-.145c0-1.161-.182-1.314-.391-1.494a1.607 1.607 0 0 1-.224-.208l.714-.654a1.842 1.842 0 0 0 .14.128c.412.353.729.739.729 2.227v.145a5.716 5.716 0 0 1-.049 1.07.716.716 0 0 1-.739.621c-.313 0-1.34.024-1.34.024m-5.3.5h-6.054v-3.971h6.054zm.308-5.331h-6.67a.7.7 0 0 0-.7.7v14.257h8.068v-14.257a.7.7 0 0 0-.7-.7" class="cls-2" data-name="Path 46" transform="translate(-1025.785 234.99)"/>
    <path id="Path_47" d="M1052.557-211.313h-2.791a.651.651 0 0 1-.652-.652v-6h-.8a.651.651 0 0 1-.652-.652.651.651 0 0 1 .652-.652h1.448a.652.652 0 0 1 .652.652v6h1.487v-9.221a2.6 2.6 0 0 1 .818-1.989 3.291 3.291 0 0 1 2.906-.53.652.652 0 0 1 .519.763.651.651 0 0 1-.763.519 2.256 2.256 0 0 0-1.791.22 1.349 1.349 0 0 0-.386.98v9.909a.652.652 0 0 1-.652.652" class="cls-2" data-name="Path 47" transform="translate(-1031.628 234.76)"/>
</svg>
