<svg xmlns="http://www.w3.org/2000/svg" width="31.4" height="35.943" viewBox="0 0 31.4 35.943">
    <defs>
        <style>
            .cls-1{fill:#df8200}.cls-2{fill:#fff}
        </style>
    </defs>
    <g id="Group_16" data-name="Group 16">
        <path id="Path_16" d="M1132.7-297.41a1.013 1.013 0 0 1-.508-.136l-14.684-8.477a1.015 1.015 0 0 1-.508-.878v-16.959a1.015 1.015 0 0 1 .508-.878l14.684-8.477a1.014 1.014 0 0 1 1.015 0l14.685 8.477a1.015 1.015 0 0 1 .508.878v16.96a1.015 1.015 0 0 1-.508.878l-14.685 8.479a1.009 1.009 0 0 1-.507.136" class="cls-1" data-name="Path 16" transform="translate(-1117 333.353)"/>
        <g id="Group_15" data-name="Group 15" transform="translate(5.531 13.091)">
            <g id="Group_14" data-name="Group 14">
                <path id="Path_17" d="M1134.6-298.632a2.071 2.071 0 0 0-2.072 2.071 2.072 2.072 0 0 0 2.072 2.072 2.072 2.072 0 0 0 2.072-2.072 2.072 2.072 0 0 0-2.072-2.071z" class="cls-2" data-name="Path 17" transform="translate(-1129.694 304.249)"/>
                <path id="Path_18" d="M1147.26-303.066l-.34-2.757a1.013 1.013 0 0 0-1.062-.888l-.741.04-2.306-2.077a1.2 1.2 0 0 0-.808-.31h-4.684a4.614 4.614 0 0 0-2.89 1.017l-2.612 2.1-3.514.877a1.015 1.015 0 0 0-.768.984v1.012a.271.271 0 0 0-.27.271v1.34a.345.345 0 0 0 .345.345h1.983c-.008-.086-.026-.168-.026-.256a2.606 2.606 0 0 1 2.607-2.606 2.606 2.606 0 0 1 2.606 2.606c0 .088-.018.171-.026.256h5.494a2.547 2.547 0 0 1-.026-.256 2.606 2.606 0 0 1 2.605-2.606 2.606 2.606 0 0 1 2.606 2.606 2.309 2.309 0 0 1-.027.256h1.85a.345.345 0 0 0 .345-.345v-1.263a.342.342 0 0 0-.341-.346zm-6.952-3.388l-6.534.331 1.251-1.006a3.82 3.82 0 0 1 2.4-.844h2.886zm1.086-.056v-1.463h.425a.594.594 0 0 1 .4.153l1.334 1.2z" class="cls-2" data-name="Path 18" transform="translate(-1127.265 309.057)"/>
                <path id="Path_19" d="M1154.377-298.632a2.071 2.071 0 0 0-2.072 2.071 2.072 2.072 0 0 0 2.072 2.072 2.072 2.072 0 0 0 2.072-2.072 2.071 2.071 0 0 0-2.072-2.071z" class="cls-2" data-name="Path 19" transform="translate(-1138.813 304.249)"/>
            </g>
        </g>
    </g>
</svg>
