<svg xmlns="http://www.w3.org/2000/svg" id="LinkedIn" width="12.428" height="11.298" viewBox="0 0 12.428 11.298">
    <defs>
        <style>
            .cls-1{fill:#fff}
        </style>
    </defs>
    <path id="Rectangle_29" d="M0 0h2.422v7.675H0z" class="cls-1" data-name="Rectangle 29" transform="translate(.313 3.623)"/>
    <path id="Path_67" d="M753.993 154.6a2.487 2.487 0 0 0-2.418 1.279v-1.2h-2.721c.035.64 0 7.675 0 7.675h2.721v-4.153a1.75 1.75 0 0 1 .059-.627 1.386 1.386 0 0 1 1.312-.94c.945 0 1.375.71 1.375 1.749v3.972h2.747v-4.267c-.001-2.388-1.354-3.488-3.075-3.488z" class="cls-1" data-name="Path 67" transform="translate(-744.639 -151.048)"/>
    <path id="Path_68" d="M737.823 144.062a1.338 1.338 0 1 0-.034 2.663h.018a1.338 1.338 0 1 0 .017-2.663z" class="cls-1" data-name="Path 68" transform="translate(-736.343 -144.062)"/>
</svg>
