<svg xmlns="http://www.w3.org/2000/svg" id="Logo" width="92" height="29.595" viewBox="0 0 92 29.595">
    <defs>
        <style>
            .cls-1{fill:#fff}.cls-2{fill:#00973d}.cls-3{fill:#00a5ee}.cls-4{fill:#003471}.cls-5{fill:#e1282c}.cls-6{fill:#fe9d2b}.cls-7{fill:#8abb2a}.cls-8{fill:#268437}
        </style>
    </defs>
    <path id="Path_1" d="M131.918 18.309a2.244 2.244 0 0 0-2.242 2.242v5.564h-8.429v-7.806H117.9v18.413h3.345v-7.729h8.429v7.729h3.346V18.309h-1.1z" class="cls-1" data-name="Path 1" transform="translate(-83.213 -12.922)"/>
    <path id="Path_2" d="M185.082 35.932A2.242 2.242 0 0 0 183 37.375l-2.358 6.233c-.233.7-.44 1.512-.44 1.512l-.028-.016s-.258-.847-.517-1.548l-3.03-7.626h-3.453l5.576 13.021-.493 1.168a2.5 2.5 0 0 1-2.282 1.711 2.882 2.882 0 0 1-1.478-.545l-1.097 2.466a5.08 5.08 0 0 0 2.748.856 4.947 4.947 0 0 0 4.772-3.45l5.914-15.224z" class="cls-1" data-name="Path 2" transform="translate(-122.219 -25.36)"/>
    <path id="Path_3" d="M231.6 18.309a2.243 2.243 0 0 0-2.239 2.242v3.567c0 .415.026.751.026.751h-.052s-.908-1.684-3.813-1.684c-3.5 0-5.99 2.722-5.99 6.924 0 4.1 2.281 6.925 5.861 6.925a4.593 4.593 0 0 0 4.15-2.258h.053s.039.38.067.858l.095 1.088h2.9V18.309zm-5.455 15.95c-1.945 0-3.294-1.634-3.294-4.15 0-2.62 1.5-4.1 3.32-4.1 2.2 0 3.294 2.025 3.294 4.074 0 2.93-1.608 4.176-3.32 4.176" class="cls-1" data-name="Path 3" transform="translate(-154.942 -12.922)"/>
    <path id="Path_4" d="M276.664 34.883a6.538 6.538 0 0 0-6.718 6.924 6.779 6.779 0 0 0 7.107 6.925 8.265 8.265 0 0 0 5.316-1.893l-1.269-2.363a6.533 6.533 0 0 1-3.812 1.454 3.76 3.76 0 0 1-3.967-3.5h9.129s.078-.883.078-1.272c0-3.5-2.049-6.274-5.861-6.274m-3.242 5.29a3.08 3.08 0 0 1 3.164-2.75 2.554 2.554 0 0 1 2.62 2.75z" class="cls-1" data-name="Path 4" transform="translate(-190.525 -24.62)"/>
    <path id="Path_5" d="M62.974 20.943a14.3 14.3 0 0 0 1.2.439l.02.009c.032.01.068.018.1.028q.406.128.833.235l.241.059c.266.062.538.117.817.166l.3.053c.279.044.565.078.856.108.1.01.2.024.3.033.392.032.792.055 1.206.06l.013.009a14.842 14.842 0 0 0 .025 14.838l-2.769 1.593v.008l-2.252 1.269a20.432 20.432 0 0 1-.895-18.906" class="cls-2" data-name="Path 5" transform="translate(-43.107 -14.781)"/>
    <path id="Path_6" d="M31.154 3.664l.009-.009.131-.12c.1-.095.207-.189.3-.284l.166-.162c.084-.084.166-.166.245-.248l.145-.151c.114-.121.223-.241.327-.358.038-.043.073-.085.109-.128.071-.082.14-.163.206-.243l.122-.15.167-.211c.034-.044.069-.088.1-.132.077-.1.15-.2.218-.3l.068-.1.134-.194.072-.107.1-.159.067-.075c.044-.07.084-.135.118-.193l.027-.046.067-.116.025-.044.041-.073.01-.019.018-.042a14.839 14.839 0 0 0 12.888 7.35l.006 3.194h.009l-.006 1.278v.015l-.011 1.293a20.424 20.424 0 0 1-16.88-8.653 14.3 14.3 0 0 0 1-.813" class="cls-3" data-name="Path 6" transform="translate(-21.281 -.004)"/>
    <path id="Path_7" d="M1.792 12.282c-.028-.162-.06-.32-.093-.476v-.01c-.024-.114-.05-.223-.075-.333l-.037-.16-.079-.307-.043-.161c-.027-.1-.055-.191-.083-.285l-.048-.158a11.938 11.938 0 0 0-.086-.266L1.2 9.975a10.215 10.215 0 0 0-.088-.249l-.051-.139C1.028 9.509 1 9.432.97 9.358a11.12 11.12 0 0 0-.138-.34C.814 8.975.8 8.936.779 8.9.751 8.831.723 8.766.7 8.706L.646 8.6a6.062 6.062 0 0 0-.08-.174l-.045-.094q-.068-.138-.129-.257l-.056-.107-.042-.078-.059-.108L.2 7.719l-.05-.088-.027-.045-.041-.068-.018-.028-.028-.046-.01-.015-.005-.008V7.4A14.841 14.841 0 0 0 12.88 0l4.01 1.98 1.17.576A20.528 20.528 0 0 1 1.908 13.081a15.7 15.7 0 0 0-.115-.8" class="cls-4" data-name="Path 7" transform="translate(-.014)"/>
    <path id="Path_8" d="M4.741 33.04l-.053-.024c-.053-.017-.111-.029-.165-.046-.21-.065-.426-.124-.645-.181l-.383-.1a12.34 12.34 0 0 0-.694-.14c-.132-.024-.262-.051-.4-.072-.254-.04-.518-.069-.783-.1-.124-.013-.244-.031-.37-.042a16.764 16.764 0 0 0-1.208-.059H.034A14.841 14.841 0 0 0 0 17.448l3.669-2.468 1.124-.757A20.542 20.542 0 0 1 5.9 33.467c-.37-.155-.758-.3-1.16-.426" class="cls-5" data-name="Path 8" transform="translate(0 -10.038)"/>
    <path id="Path_9" d="M.073 55.961a20.425 20.425 0 0 1 16.88 8.659c-.355.263-.682.531-.986.8l-.021.015-.085.078-.194.178q-.12.113-.235.224a9.383 9.383 0 0 0-.174.169q-.161.162-.31.32l-.174.189-.2.219c-.066.072-.1.115-.148.172l-.16.192-.132.162-.162.207c-.053.068-.1.129-.145.191s-.107.145-.156.214l-.09.129-.108.158-.074.111c-.036.056-.07.107-.1.157l-.046.073c-.044.069-.081.132-.116.189l-.03.051-.062.108-.022.04-.039.072-.011.019-.016.031A14.856 14.856 0 0 0 .07 61.741l-.006-3.194H.05z" class="cls-6" data-name="Path 9" transform="translate(-.035 -39.497)"/>
    <path id="Path_10" d="M42.458 56.134c.049.4.124.813.211 1.231v.046c.032.148.067.3.1.448l.053.205c.06.231.128.464.2.7.02.065.039.129.061.194q.129.393.285.793l.076.193a15.903 15.903 0 0 0 .432.976c.143.3.294.6.462.9a14.84 14.84 0 0 0-12.855 7.4l-3.923-1.947-1.249-.616a20.55 20.55 0 0 1 16.147-10.523" class="cls-7" data-name="Path 10" transform="translate(-18.57 -39.619)"/>
    <path id="Path_11" d="M70.03 50.9a15.218 15.218 0 0 0 1.994 7.056l-3.889 2.237a19.559 19.559 0 0 1-2.612-9.53" class="cls-8" data-name="Path 11" transform="translate(-46.245 -35.755)"/>
    <path id="Path_12" d="M66.887 49.471a15.152 15.152 0 0 0 2 7.424l-2.769 1.593v.008l-2.252 1.269a20.766 20.766 0 0 1-2.79-10.6" class="cls-2" data-name="Path 12" transform="translate(-43.107 -34.698)"/>
</svg>
