<svg xmlns="http://www.w3.org/2000/svg" width="12.618" height="10.515" viewBox="0 0 12.618 10.515">
    <defs>
        <style>
            .cls-1{fill:#fff}
        </style>
    </defs>
    <path id="Twitter" d="M876.206 144.932a5.09 5.09 0 0 1-1.645.643 2.553 2.553 0 0 0-1.889-.838 2.622 2.622 0 0 0-2.588 2.654 2.7 2.7 0 0 0 .067.6 7.287 7.287 0 0 1-5.336-2.774 2.7 2.7 0 0 0-.35 1.336 2.671 2.671 0 0 0 1.151 2.209 2.541 2.541 0 0 1-1.173-.331v.032a2.639 2.639 0 0 0 2.078 2.6 2.467 2.467 0 0 1-.682.093 2.529 2.529 0 0 1-.487-.047 2.6 2.6 0 0 0 2.418 1.842 5.112 5.112 0 0 1-3.215 1.137 5.189 5.189 0 0 1-.617-.036 7.206 7.206 0 0 0 3.968 1.192 7.415 7.415 0 0 0 7.365-7.552c0-.116 0-.231-.007-.344a5.312 5.312 0 0 0 1.291-1.374 5.071 5.071 0 0 1-1.486.418 2.649 2.649 0 0 0 1.137-1.46z" class="cls-1" transform="translate(-863.936 -144.738)"/>
</svg>
